# xmcd
#
# Track frame offsets:
#	150
#	13388
#	30350
#	41908
#	54183
#	65012
#	78496
#	90210
#	107301
#	121729
#	135711
#	155028
#	167484
#	180766
#	192642
#	204777
#	217048
#	231383
#	244714
#	266358
#
# Disc length: 3797 seconds
#
# Revision: 1
# Processed by: cddbd v1.5.2PL0 Copyright (c) Steve Scherf et al.
# Submitted via: audiograbber 1.83.01
#
DISCID=040ed314
DTITLE=Various Artist - Dolly Parton And Friends - CD2
DYEAR=2019
DGENRE=Country
TTITLE0=Lynn Anderson - Rose Garden
TTITLE1=Lynn Anderson - Blue Bayou
TTITLE2=Johnny Cash - Ring Of Fire
TTITLE3=Johnny Cash - I Walk The Line
TTITLE4=Billie Jo Spears - All I Have To Do Is  Dream
TTITLE5=Billie Jo Spears - Fever
TTITLE6=Tina Turner - Stand By Your Man
TTITLE7=Tina Turner - Stand By Me
TTITLE8=John Denver - Take Me Home Country Roads
TTITLE9=John Denver - Annie's Song (Live)
TTITLE10=Nashville Chicks - Cowboy Take Me Away
TTITLE11=Zella Lehr - Two Doors Down
TTITLE12=Patti Page - Tennessee Waltz
TTITLE13=Skeeter Davis - End Of The World
TTITLE14=Wanda Jackson - What In The World's Come Over You
TTITLE15=Tanya Tucker - You Are So Beautiful
TTITLE16=Razzy Bailey - Too Old To Play Cowboy
TTITLE17=Nina Martin - Love Me Tender
TTITLE18=Kenny Rogers - Have I Told  You Lately That I Love You
TTITLE19=Dave Dudley - Cowboy You're America
EXTD=
EXTT0=
EXTT1=
EXTT2=
EXTT3=
EXTT4=
EXTT5=
EXTT6=
EXTT7=
EXTT8=
EXTT9=
EXTT10=
EXTT11=
EXTT12=
EXTT13=
EXTT14=
EXTT15=
EXTT16=
EXTT17=
EXTT18=
EXTT19=
PLAYORDER=
